<?xml version="1.0" encoding="utf-8"?>
<!-- Generator: Adobe Illustrator 27.9.0, SVG Export Plug-In . SVG Version: 6.00 Build 0)  -->
<svg version="1.1" id="Layer_1" xmlns="http://www.w3.org/2000/svg" xmlns:xlink="http://www.w3.org/1999/xlink" x="0px" y="0px"
	 viewBox="0 0 488 120" style="enable-background:new 0 0 488 120;" xml:space="preserve">
<style type="text/css">
	.st0{fill:#ffffff;}
	.st1{fill:#F3B61A;}
	.st2{fill:#ffffff;}
</style>
<g>
	<g>
		<g>
			<path class="st0" d="M98.13,60.42l-26.6-0.23c0,0-9.18,0.4-16.72,9.86c-7.54-9.49-18.36-9.79-18.36-9.79l-26.41,0.13
				c-1.46,0.4-1.33,1.99-1.33,1.99v43.92c5.77,5.41,12.47,9.83,19.85,12.98l-0.21-38.32c0.33-1.86,4.98-1.19,4.98-1.19
				c11.61,1.46,20.95,18.71,21.47,18.53c0.04-0.01,0.1-0.09,0.2-0.23c1.4-2.04,8.96-16.92,19.84-18.28c0,0,4.64-0.66,4.98,1.19
				l-0.01,38.32c0,0-0.3,0,0,0c7.11-2.79,13.94-8.01,19.65-12.89V62.41C99.46,62.41,99.59,60.81,98.13,60.42z"/>
		</g>
		<path class="st1" d="M103.29,19.55c-3.22,0-5.83,2.61-5.83,5.83c0,1.35,0.48,2.58,1.25,3.57c-1.79,1.3-10.51,6.98-21.72,3.89
			C65.14,29.58,58.1,18.3,56.6,15.38c3.18-0.91,5.52-3.81,5.52-7.28c0-4.2-3.41-7.61-7.61-7.61c-4.2,0-7.61,3.41-7.61,7.61
			c0,3.44,2.29,6.3,5.42,7.25c-1.46,2.86-8.5,14.21-20.41,17.49c-10.69,2.95-19.11-2.09-21.42-3.68c0.02-0.02,0.05-0.04,0.07-0.07
			c0.89-1.02,1.44-2.34,1.44-3.8c0-3.22-2.61-5.83-5.83-5.83s-5.83,2.61-5.83,5.83c0,3.1,2.43,5.61,5.48,5.79
			c0.59,3.35,3.75,21.13,4.1,21.99c0.39,0.94,0.94,1.2,0.94,1.2h27.39c6.78,0.56,14.65,6.9,14.65,6.9l1.67,1.17
			c0,0,6.82-7.18,15.35-8.11l28.11,0.04c0,0,0.56-0.26,0.94-1.2c0.35-0.85,3.45-18.28,4.08-21.88c0.08,0,0.15,0.02,0.22,0.02
			c0.16,0,0.31-0.03,0.47-0.05c1.57-0.13,2.95-0.86,3.92-1.98c0.89-1.02,1.44-2.34,1.44-3.8C109.12,22.16,106.51,19.55,103.29,19.55
			z"/>
	</g>
	<g>
		<g>
			<g>
				<path class="st0" d="M131.99,79.74V32.4h10.28l17.24,28.06l-7.37-0.07l17.45-28h9.87v47.33H168.3V65c0-4.06,0.1-7.71,0.3-10.95
					c0.2-3.25,0.55-6.47,1.05-9.67l1.28,3.52l-13.12,20.35h-4.46l-12.85-20.22l1.28-3.65c0.5,3.02,0.85,6.12,1.05,9.3
					s0.3,6.95,0.3,11.33v14.74H131.99z"/>
				<path class="st0" d="M185.34,79.74l18.73-47.33h9.74l18.6,47.33h-11.63l-8.93-24.01c-0.36-0.95-0.72-1.96-1.08-3.04
					c-0.36-1.08-0.72-2.2-1.08-3.35c-0.36-1.15-0.71-2.28-1.05-3.38c-0.34-1.1-0.62-2.13-0.85-3.08l2.03-0.07
					c-0.27,1.13-0.57,2.23-0.91,3.31c-0.34,1.08-0.68,2.15-1.01,3.21c-0.34,1.06-0.71,2.12-1.12,3.18
					c-0.41,1.06-0.79,2.15-1.15,3.28l-8.93,23.94H185.34z M194.26,70.68l3.58-8.66h21.77l3.52,8.66H194.26z"/>
				<path class="st0" d="M258.91,80.42c-3.79,0-7.21-0.61-10.28-1.83c-3.07-1.22-5.7-2.93-7.91-5.14c-2.21-2.21-3.9-4.81-5.07-7.81
					c-1.17-3-1.76-6.25-1.76-9.77s0.62-6.75,1.86-9.7c1.24-2.95,3.01-5.53,5.31-7.74c2.3-2.21,5.01-3.92,8.15-5.14
					c3.13-1.22,6.55-1.83,10.24-1.83c2.61,0,5.08,0.34,7.4,1.01c2.32,0.68,4.43,1.6,6.32,2.77c1.89,1.17,3.49,2.52,4.8,4.06
					l-6.96,7.37c-1.13-1.08-2.29-1.98-3.48-2.71c-1.19-0.72-2.47-1.29-3.82-1.72c-1.35-0.43-2.8-0.64-4.33-0.64
					c-1.98,0-3.8,0.36-5.44,1.08c-1.65,0.72-3.09,1.72-4.33,3.01c-1.24,1.28-2.2,2.8-2.87,4.53c-0.68,1.74-1.01,3.62-1.01,5.65
					c0,2.03,0.36,3.92,1.08,5.68c0.72,1.76,1.71,3.28,2.98,4.56c1.26,1.28,2.76,2.3,4.5,3.04c1.73,0.74,3.59,1.12,5.58,1.12
					c1.4,0,2.72-0.23,3.96-0.68c1.24-0.45,2.31-1.06,3.21-1.83c0.9-0.77,1.62-1.68,2.16-2.74c0.54-1.06,0.81-2.2,0.81-3.41v-1.76
					l1.49,2.3h-13.05v-8.99h22.25c0.09,0.5,0.16,1.17,0.2,2.03c0.04,0.86,0.08,1.69,0.1,2.5c0.02,0.81,0.03,1.42,0.03,1.83
					c0,3.07-0.55,5.87-1.66,8.42c-1.1,2.55-2.65,4.75-4.63,6.59c-1.98,1.85-4.33,3.29-7.03,4.33
					C264.99,79.9,262.06,80.42,258.91,80.42z"/>
				<path class="st0" d="M309.76,80.14c-3.92,0-7.42-0.8-10.48-2.4c-3.07-1.6-5.47-3.8-7.2-6.59c-1.74-2.79-2.6-6-2.6-9.6V32.4
					h11.63v28.54c0,1.71,0.38,3.26,1.15,4.63c0.77,1.38,1.8,2.46,3.11,3.25c1.31,0.79,2.77,1.18,4.4,1.18
					c1.71,0,3.23-0.39,4.56-1.18c1.33-0.79,2.4-1.87,3.21-3.25c0.81-1.37,1.22-2.92,1.22-4.63V32.4h11.23v29.14
					c0,3.61-0.87,6.81-2.6,9.6c-1.74,2.8-4.14,4.99-7.2,6.59C317.11,79.35,313.64,80.14,309.76,80.14z"/>
				<path class="st0" d="M341.54,79.74V32.4h19.81c3.47,0,6.65,0.57,9.53,1.72c2.88,1.15,5.38,2.78,7.47,4.9
					c2.1,2.12,3.71,4.62,4.83,7.51c1.13,2.89,1.69,6.06,1.69,9.53c0,3.47-0.56,6.66-1.69,9.57c-1.13,2.91-2.74,5.41-4.83,7.51
					c-2.1,2.1-4.59,3.72-7.47,4.87c-2.89,1.15-6.06,1.72-9.53,1.72H341.54z M353.04,71.9l-1.56-2.3h9.53c1.89,0,3.58-0.33,5.07-0.98
					c1.49-0.65,2.76-1.57,3.82-2.74c1.06-1.17,1.88-2.59,2.47-4.26c0.59-1.67,0.88-3.52,0.88-5.54c0-2.03-0.29-3.88-0.88-5.54
					c-0.59-1.67-1.41-3.09-2.47-4.26c-1.06-1.17-2.33-2.08-3.82-2.74c-1.49-0.65-3.18-0.98-5.07-0.98h-9.74l1.76-2.16V71.9z"/>
				<path class="st0" d="M386.37,79.74L405.1,32.4h9.74l18.6,47.33h-11.63l-8.93-24.01c-0.36-0.95-0.72-1.96-1.08-3.04
					c-0.36-1.08-0.72-2.2-1.08-3.35c-0.36-1.15-0.71-2.28-1.05-3.38c-0.34-1.1-0.62-2.13-0.85-3.08l2.03-0.07
					c-0.27,1.13-0.57,2.23-0.91,3.31c-0.34,1.08-0.68,2.15-1.01,3.21c-0.34,1.06-0.71,2.12-1.12,3.18
					c-0.41,1.06-0.79,2.15-1.15,3.28l-8.93,23.94H386.37z M395.3,70.68l3.58-8.66h21.77l3.52,8.66H395.3z"/>
				<path class="st0" d="M439.32,79.74V32.4h10.28l17.24,28.06l-7.37-0.07l17.45-28h9.87v47.33h-11.16V65c0-4.06,0.1-7.71,0.3-10.95
					c0.2-3.25,0.55-6.47,1.05-9.67l1.29,3.52l-13.12,20.35h-4.46l-12.85-20.22l1.28-3.65c0.5,3.02,0.85,6.12,1.05,9.3
					s0.3,6.95,0.3,11.33v14.74H439.32z"/>
			</g>
		</g>
		<g>
			<path class="st2" d="M131.6,119.3l8.63-22.45h1.06l8.63,22.45h-0.83l-6.19-16.17c-0.06-0.15-0.18-0.43-0.34-0.85
				c-0.16-0.42-0.35-0.92-0.58-1.52c-0.22-0.6-0.47-1.22-0.72-1.88c-0.26-0.65-0.5-1.28-0.74-1.88l0.35,0.03
				c-0.13,0.38-0.3,0.88-0.53,1.48c-0.22,0.6-0.46,1.21-0.71,1.84c-0.25,0.63-0.47,1.2-0.66,1.72s-0.33,0.88-0.42,1.09l-6.13,16.13
				H131.6z M134.81,111.93l0.26-0.74h11.45l0.26,0.74H134.81z"/>
			<path class="st2" d="M197.38,119.62c-1.6,0-3.08-0.28-4.43-0.83c-1.35-0.56-2.52-1.34-3.51-2.36s-1.76-2.22-2.29-3.62
				c-0.53-1.4-0.8-2.93-0.8-4.6c0-1.71,0.27-3.28,0.8-4.7c0.53-1.42,1.3-2.65,2.29-3.69s2.17-1.84,3.51-2.42
				c1.35-0.58,2.82-0.87,4.43-0.87c1.13,0,2.2,0.15,3.19,0.46c0.99,0.31,1.91,0.74,2.76,1.3c0.84,0.56,1.6,1.21,2.26,1.96
				l-0.58,0.51c-0.62-0.71-1.33-1.32-2.12-1.86c-0.79-0.53-1.65-0.95-2.57-1.23c-0.92-0.29-1.9-0.43-2.95-0.43
				c-1.48,0-2.84,0.27-4.11,0.82c-1.26,0.54-2.35,1.31-3.27,2.29c-0.92,0.98-1.64,2.14-2.15,3.48c-0.51,1.34-0.77,2.8-0.77,4.38
				c0,1.56,0.26,2.99,0.77,4.3s1.23,2.44,2.15,3.4c0.92,0.96,2.01,1.71,3.27,2.23s2.63,0.79,4.11,0.79c0.96,0,1.88-0.11,2.76-0.34
				c0.88-0.22,1.69-0.54,2.44-0.96c0.75-0.42,1.42-0.91,2.02-1.49l0.48,0.58c-0.64,0.62-1.36,1.14-2.16,1.57
				c-0.8,0.43-1.67,0.76-2.6,0.99C199.38,119.51,198.41,119.62,197.38,119.62z"/>
			<path class="st2" d="M242.02,119.3l8.63-22.45h1.06l8.63,22.45h-0.83l-6.19-16.17c-0.06-0.15-0.18-0.43-0.34-0.85
				c-0.16-0.42-0.35-0.92-0.58-1.52c-0.22-0.6-0.47-1.22-0.72-1.88c-0.26-0.65-0.5-1.28-0.74-1.88l0.35,0.03
				c-0.13,0.38-0.3,0.88-0.53,1.48c-0.22,0.6-0.46,1.21-0.71,1.84c-0.25,0.63-0.47,1.2-0.66,1.72s-0.33,0.88-0.42,1.09l-6.13,16.13
				H242.02z M245.23,111.93l0.26-0.74h11.45l0.26,0.74H245.23z"/>
			<path class="st2" d="M299.18,119.3V96.85h7.92c1.37,0,2.68,0.28,3.93,0.83c1.25,0.56,2.36,1.34,3.34,2.34
				c0.97,1,1.74,2.19,2.31,3.56c0.57,1.37,0.85,2.87,0.85,4.49c0,1.6-0.28,3.09-0.85,4.46c-0.57,1.37-1.34,2.56-2.31,3.58
				c-0.97,1.02-2.08,1.8-3.34,2.36c-1.25,0.56-2.56,0.83-3.93,0.83H299.18z M299.88,118.88l-0.32-0.29h7.38
				c1.28,0,2.52-0.27,3.7-0.8c1.19-0.53,2.24-1.28,3.16-2.23s1.65-2.07,2.18-3.35c0.53-1.28,0.8-2.66,0.8-4.14
				c0-1.5-0.27-2.89-0.8-4.17c-0.53-1.28-1.26-2.4-2.18-3.35c-0.92-0.95-1.97-1.69-3.16-2.21c-1.19-0.52-2.42-0.79-3.7-0.79h-7.41
				l0.35-0.35V118.88z"/>
			<path class="st2" d="M357.48,119.3V96.85h12.54v0.71h-11.83v21.04h11.64v0.71H357.48z M357.9,108.04v-0.71h10.26v0.71H357.9z"/>
			<path class="st2" d="M410.31,119.3V96.85h0.55l9.43,15.01h-0.1l9.4-15.01h0.54v22.45h-0.71v-17.42c0-0.75,0.01-1.5,0.03-2.26
				c0.02-0.76,0.04-1.51,0.06-2.26l0.51,0.16l-9.56,15.23h-0.48l-9.4-15.01l0.32-0.38c0.04,0.71,0.07,1.43,0.08,2.16
				c0.01,0.74,0.02,1.5,0.02,2.29v17.48H410.31z"/>
			<path class="st2" d="M477.63,119.3v-10.87l0.26,1.25L469,96.85h0.83l8.31,11.96h-0.35l8.08-11.96h0.83l-8.66,12.83l0.29-1.25
				v10.87H477.63z"/>
		</g>
	</g>
</g>
</svg>
